<svg version="1.0" xmlns="http://www.w3.org/2000/svg" width="768" height="768" viewBox="0 0 576 576"><path d="M288.5 36.6C149.9 56.5 35.7 72.9 34.8 72.9 33.1 73 33 83.9 33 288c0 178.5.2 215 1.3 215 1.5 0 501.3 71.7 506.5 72.6l3.2.6V288.1c0-273.8-.1-288.1-1.7-288-1 .1-115.2 16.5-253.8 36.5zM149.4 159.8c16.3 39.5 19.4 46.2 21 46 1.5-.2 6.1-10.1 21.5-46.6l19.5-46.2H227l-.2 81.1-.3 81.1-7.9 2.9c-4.4 1.6-8.4 2.9-8.8 2.9-.4 0-.8-25.4-.8-56.5s-.4-56.5-.8-56.5c-.5 0-7.5 13.8-15.5 30.7L178 229.5l-7.2 2.1c-4 1.2-7.6 2-7.9 1.8-.3-.1-6.8-14.4-14.4-31.6-7.6-17.2-14.2-31.7-14.7-32.2-.4-.6-.8 30.3-.8 68.6s-.4 69.9-.8 70.2c-.5.3-4.5 1.8-9 3.5l-8.2 3v-202l7.6.3 7.6.3 19.2 46.3zm158.4-38.6l-.3 8.3-21.5.2-21.5.2-.3 24.1-.2 24 2.2-.5c5.7-1.3 32.3-6.5 33.5-6.5 1 0 1.3 2 1.3 8.4v8.4l-13.2 3.1c-7.3 1.7-15.7 3.6-18.5 4.3l-5.3 1.1v23.9c0 13.1.3 23.8.8 23.8.4 0 10.2-3.2 21.7-7 11.5-3.9 21.1-7 21.3-7 .1 0 .2 3.7 0 8.2l-.3 8.3-28.7 10.2c-15.8 5.6-29.9 10.5-31.3 10.9l-2.5.6V113h63.1l-.3 8.2zm51.8-6.7c9.2 2.7 15.8 9.5 18.9 19.5 1.4 4.3 1.9 10.5 2.2 29.1.6 25.6-.4 37.4-3.8 46.4-2 5.4-9.3 14.5-13.3 16.7-3.6 2-42.1 15.5-42.8 15.1-1-.5-1.1-126.7-.1-127.6 1.3-1.4 33.8-.7 38.9.8zm47.2 47.7l-.3 49.3-6 2.2c-3.3 1.2-6.3 2.2-6.7 2.2-.5.1-.8-23.1-.8-51.4V113h14l-.2 49.2zm44.6-47.5c.3 1 3.9 17.3 8 36.3 4.2 19 7.8 35.5 8.1 36.7.4 1.8-.3 2.4-5.5 4.1-6.9 2.4-6 3.4-8.5-9.8-.9-4.7-1.8-9-2-9.7-.3-.8-2.7-.6-8.7 1l-8.3 2.2-2.8 13.5c-1.6 7.4-3.2 13.8-3.5 14.2-1.1 1.2-14.2 5.8-14.2 5.1 0-.9 18.8-86.5 20.1-91.6l1-3.7h7.9c6.6 0 7.9.3 8.4 1.7zM466 221.4v10.3l-28 9.8-28 9.8V281c0 16.3.2 29.9.5 30.2.4.4 36.5-7 46.8-9.6 1.5-.4 1.7.6 1.7 9.8v10.3l-17.7 3.7c-9.8 2.1-20.8 4.4-24.5 5.2l-6.8 1.6V402h56v18h-73V236.5l35.3-12.7c19.3-6.9 35.8-12.7 36.5-12.7.9-.1 1.2 2.6 1.2 10.3zm-96 29.2c9.1 3.6 11.3 13.2 10.8 45.5-.3 20.9-.5 22.7-2.7 27.6-2.7 6.1-10.3 13.6-16.4 16.3-3.7 1.7-14.1 4.7-21.9 6.4l-2.8.6v73.1l-8.2-.3-8.3-.3v-11.3c0-6.1.1-41.5.3-78.6l.2-67.3 16.3-5.6c23.5-8.2 26.2-8.7 32.7-6.1zm-76.7 25.8c4.4 1.9 8.3 6.3 10.2 11.6 2.7 7.8 3.8 28.5 3.2 64-.7 42.7-1.9 48.8-11.9 59.6-6.1 6.6-13.5 9.8-22.8 9.9-15.9 0-23.6-8.7-26-29.6-1.4-11.9-1.3-72.5.1-79.1 1.6-7.3 6.2-17.2 10.5-22.5 9.4-11.4 27-18.1 36.7-13.9zm-73.6 27.5c7.6 3.5 11.2 11.8 11.3 26.3v7.6l-6.9 1.6c-3.9.9-7.5 1.6-8 1.6-.7 0-1.1-2.4-1.2-5.8-.1-8.7-1.9-14.5-5-15.9-5.5-2.7-15.2 3-18.2 10.6-2.9 7.1-4 20.5-3.4 41.6.7 28.3 2.8 34.5 11.7 34.5 4.4 0 9.6-3.2 12.1-7.5 2-3.3 3.9-13.5 3.9-20.5v-4.6l7.6-1.6 7.7-1.6-.6 11.7c-1.2 26-8.8 36.2-28.9 39.2-12 1.8-19.5-.7-23.9-7.8-4.1-6.6-5-13.4-5.6-39.8-.6-27.8.5-38 5-47.9 4.8-10.5 15-18.6 27.8-22 7.2-2 9.6-1.9 14.6.3zm-70 25.8c5.2 2.4 8.4 8 9 15.6l.6 6.4-3.9.6c-2.2.4-5.3.9-7 1.3-3.1.6-3.2.5-3.9-4.3-.9-6-1.9-7.3-6-7.3-7.1 0-11 6.6-10.3 17.6.5 8.7 1.7 9.7 9.2 8.3 7-1.3 12.6-.5 16.2 2.4 4.4 3.5 5.4 7.3 5.4 22 0 12.3-.2 13.7-2.6 18.5-2.1 4.3-3.4 5.6-8 7.8-4.4 2.2-6.9 2.7-12.5 2.6-13.3 0-21.2-7-22.5-19.7l-.6-6.1 5.9-1.2c9.4-1.9 9.3-1.9 9.3 3.9 0 6.5 1.2 8.7 5.4 9.4 8.1 1.6 12.2-4.7 11.4-17.4-.5-7.3-2.4-9.6-7-8.6-4.9 1.1-13.3.9-16.4-.3-5.3-2.2-6.8-6.3-7.2-18.9-.3-8.7 0-12.3 1.3-16.4 2.2-6.6 9.3-14 15.6-16.2 5.9-2.1 14.3-2.1 18.6 0zm-19.1 120.7c2.1 1.8 2.8 3.2 2.8 6.1 0 5.4-3.8 8.5-10.5 8.5H118v6.5c0 5.1-.3 6.5-1.5 6.5-1.3 0-1.5-2.3-1.5-15v-15h6.4c5.4 0 7 .4 9.2 2.4zm29.2-.4c3.9 2.4 6.2 7.3 6.2 13.2 0 11.2-10.8 18.3-19.7 12.8-4.9-2.9-6.6-7.1-6.1-14.8.4-5.9.7-6.7 4.1-9.8 3-2.8 4.5-3.4 7.9-3.4 2.5 0 5.7.8 7.6 2zm17.6 9.6c1.6 6.3 3 11.3 3.2 11.1.2-.2 1.7-4.6 3.2-9.8 2.2-7.4 3.2-9.4 4.6-9.4 1.5 0 2.5 2 4.7 9.3 1.5 5.2 3 9.6 3.2 9.8.3.3 1.7-4.7 3.3-11 2.3-9.4 3.1-11.6 4.6-11.6 2.3 0 2.3.1-2 16-3.1 11.4-4 13.5-5.6 13.5-1.6 0-2.5-1.8-5.1-10l-3-9.9-3.1 9.9c-2.4 8.2-3.3 10-4.9 10-1.7 0-2.5-2-5.7-13.5-4.3-15.9-4.3-16-2-16 1.5 0 2.3 2.2 4.6 11.6zm52.1-9.6c0 1.2-1.5 1.6-6.7 1.8l-6.8.3v7.9h5.5c4.8 0 5.5.2 5.5 2s-.7 2-5.5 2H216v10h7c6.3 0 7 .2 7 2s-.7 2-8.5 2H213v-30.1l8.3.3c6.5.2 8.2.6 8.2 1.8zm22.9.1c3.7 2.9 3.7 8.9 0 11.8l-2.7 2.1 3.7 5.9c4 6.5 4.4 8.4 1.9 7.9-.9-.2-3.5-3.3-5.7-7-3-5-4.7-6.7-6.3-6.8-2 0-2.2.5-2.5 6.7-.2 5.5-.6 6.8-2 7.1-1.7.3-1.8-.9-1.8-14.7V448h6.4c4.9 0 6.9.5 9 2.1zm28.1-.1c0 1.2-1.5 1.6-6.7 1.8l-6.8.3v7.9h5.5c4.8 0 5.5.2 5.5 2s-.7 2-5.5 2H267v10h7c6.3 0 7 .2 7 2s-.7 2-8.5 2H264v-30.1l8.3.3c6.5.2 8.2.6 8.2 1.8zm21.5-.5c7 3.6 9.6 12 6.2 19.8-2.6 5.9-5.7 7.8-13.7 8.5l-6.5.5V448h5.5c3.1 0 6.9.7 8.5 1.5zm44.5 1c2.8 2.7 3.2 6.1 1.1 9.1-1.3 1.8-1.3 2.2.5 3.7 2.1 1.8 2.6 7.5.9 10.7-1.3 2.4-6.2 4-12.6 4H331v-30h6.5c5.7 0 6.9.3 9 2.5zm14 3.5c1.6 3.3 3.2 6 3.5 6 .3 0 1.9-2.7 3.5-6 1.9-4.1 3.4-6 4.7-6 1 0 1.8.2 1.8.5s-1.8 4.1-4 8.5c-3.5 6.9-4 8.8-4 14.6 0 5.7-.2 6.5-1.7 6.2-1.5-.3-1.9-1.7-2.3-7.3-.4-5.5-1.3-8.5-4.2-14.2-2.1-4-3.8-7.5-3.8-7.8 0-.3.8-.5 1.8-.5 1.3 0 2.8 1.9 4.7 6zm50.3-4.3c-.2 1.3-1.5 1.9-4.6 2.1l-4.2.3v13c0 10.8-.2 12.9-1.5 12.9s-1.5-2.1-1.5-13v-13h-4.5c-3.8 0-4.5-.3-4.5-2 0-1.9.7-2 10.6-2 9.5 0 10.5.2 10.2 1.7zm19.8 9.8l6.4 10.9v-11.2c0-10.5.1-11.2 2-11.2s2 .7 2 15.1c0 14.9 0 15-2.2 14.7-1.6-.2-3.7-2.9-7.8-10.1-8.1-14-8-14-8-.9 0 9.3-.3 11.2-1.5 11.2-1.3 0-1.5-2.3-1.5-15.1 0-14.8 0-15 2.1-14.7 1.6.2 4 3.4 8.5 11.3zm32.5-9.6c1.8 1.5 2.1 2.2 1.3 3.1-.9.9-1.8.8-3.7-.5-2-1.3-3-1.4-4.7-.5-3 1.6-2.2 5.1 1.9 7.5 1.9 1.1 4.7 3.3 6.4 4.8 2.5 2.3 2.8 3.3 2.3 6-.7 3.9-4.8 7.7-8.2 7.7-3.6 0-7.8-2.5-9.2-5.4-1-2.2-.9-2.7.8-3.6 1.5-.8 2-.8 2 .1 0 4.7 8.2 6.7 10.2 2.5 1.5-3.5.6-5-5-8.1-7.1-3.9-8.8-8.2-5.1-12.9 2.5-3.2 7.6-3.5 11-.7z"/><path d="M337 174v45.2l2.4-.6c10.2-2.5 18.9-9 22.4-16.4l2.7-5.7v-28.7c0-27.4-.1-28.8-2.1-31.5-3-4.1-7.9-6.1-17.1-6.9l-8.3-.7V174zm102.8-25.8c-1.4 7.3-2.4 13.5-2.2 13.7.4.5 9.6-2 10.6-2.8.4-.3.1-3.3-.7-6.6-.7-3.3-1.9-8.6-2.5-11.8-.6-3.1-1.5-5.7-1.9-5.7-.4 0-1.8 6-3.3 13.2zm-96 123.5l-6.8 2.5v25.9c0 29.5-.9 26.9 9.2 24.8 10.3-2.2 16.7-7.2 18.8-14.7 1.2-4.5 1.3-27.2.1-32.5-.5-2.2-1.9-5-3.2-6.3-3-3.2-9.2-3.1-18.1.3zM274 294.2c-4.8 2.5-8.4 6.9-10 12.7-3.4 11.6-3.9 76.2-.7 87.9 2 7.4 4.9 10.2 10.4 10.2 8.4 0 12.1-3.6 15-14.2 1.5-5.4 1.7-11.7 1.8-44.3 0-41.2-.6-47.7-5.1-52.1-2.9-3-5.8-3-11.4-.2zM118 456.5v4.5h5c5.8 0 8-2.4 6.1-6.6-.9-2.1-1.8-2.4-6.1-2.4h-5v4.5zm32-4.8c-4.9 1.8-7.5 8.2-6 14.8 1.1 5 4.1 7.5 9 7.5 5.3 0 9-4.3 9-10.6 0-8.6-5.6-14.1-12-11.7zm91 4.3v4h4.5c5.2 0 7.4-2.4 5.5-6-.8-1.5-2.1-2-5.5-2H241v4zm51 7v11h3c7.9 0 12.5-7 10.1-15.2-1.4-4.6-4.4-6.8-9.3-6.8H292v11zm42.2-7.3c.3 3.8.3 3.8 4.7 3.8 3.1 0 4.7-.5 5.5-1.8 1.9-2.9-.4-5.2-5.8-5.5l-4.7-.3.3 3.8zm0 13l.3 4.8 4.6.3c5.2.3 7.2-1.2 7.2-5.4 0-3.4-1.7-4.4-7.6-4.4h-4.8l.3 4.7z"/></svg>