<svg width="1152" height="696" fill="none" xmlns="http://www.w3.org/2000/svg"><g clip-path="url(#clip0)"><path d="M633.5 255.422l-148-21.429V108.902l148-21.325v167.845z" stroke="#fff" stroke-opacity=".3"/><path d="M1416 679.379l-491.999-71.225V192.493L1416 121.618v557.761z" stroke="#FCE800" stroke-opacity=".4" stroke-width="8"/><path d="M879.5 239.957l-488-70.604v-412.055l488-70.258v552.917z" stroke="#01AB96" stroke-opacity=".3" stroke-width="7"/><path d="M659.501 175.269l-52-7.483v-43.609l52-7.447v58.539z" stroke="#FCE800" stroke-width="3"/><path d="M736.501 411.269l-29-4.165v-24.23l29-4.144v32.539z" stroke="#02AB96" stroke-width="3"/><path d="M1151.5 306.422l-48-7.003v-40.872l48-6.969v54.844z" stroke="#01AB96"/><path d="M988 657.376l-121-17.602V537.137l121-17.516v137.755z" stroke="#fff" stroke-opacity=".2" stroke-width="8"/></g><defs><clipPath id="clip0"><path fill="#fff" d="M0 0h1152v696H0z"/></clipPath></defs></svg>