<svg width="37" height="37" fill="none" xmlns="http://www.w3.org/2000/svg"><g clip-path="url(#clip0)"><path d="M23.841.214a.895.895 0 00-.643-.286H8.764c-2.663 0-4.862 2.19-4.862 4.853v27.294c0 2.663 2.199 4.853 4.862 4.853h19.59c2.664 0 4.862-2.19 4.862-4.853V10.402a.961.961 0 00-.259-.626L23.841.214zm.26 2.869l6.104 6.408h-3.969A2.128 2.128 0 0124.1 7.363v-4.28zm4.253 32.057H8.764c-1.67 0-3.074-1.385-3.074-3.065V4.78c0-1.672 1.394-3.066 3.074-3.066h13.549v5.648a3.91 3.91 0 003.923 3.915h5.193v20.797c0 1.68-1.394 3.065-3.075 3.065z" fill="#fff"/><path d="M25.914 28.974h-14.71a.896.896 0 00-.894.893c0 .492.402.894.894.894h14.72a.896.896 0 00.893-.894.898.898 0 00-.903-.893zm-8.007-3.209a.9.9 0 00.652.286.9.9 0 00.653-.286l5.237-5.621a.89.89 0 10-1.305-1.216l-3.69 3.96v-9.76a.896.896 0 00-.895-.894.896.896 0 00-.893.894v9.76l-3.683-3.96a.891.891 0 10-1.305 1.216l5.229 5.621z" fill="#01AB96"/></g><defs><clipPath id="clip0"><path fill="#fff" d="M0 0h37v37H0z"/></clipPath></defs></svg>