<svg width="56" height="63" fill="none" xmlns="http://www.w3.org/2000/svg"><path d="M0 7.974V54.76l55.663 8.014V0L0 7.974z" fill="#00A696"/><path d="M28.834 44.507c.746-.982.942-2.003.982-4.832v-3.3c0-4.085-.118-5.303-1.022-6.01a2.03 2.03 0 00-1.257-.432c-.392 0-.785.079-1.139.236-3.378 1.257-3.339 4.95-3.339 4.989v3.77c0 4.086.118 5.304 1.021 6.247a2.638 2.638 0 002.357.746 3.395 3.395 0 002.397-1.414zm-.747-7.189v2.004c-.039 2.592-.157 3.535-.55 4.164a1.372 1.372 0 01-1.06.667h-.236c-.314 0-.628-.117-.825-.392-.471-.59-.55-1.729-.55-5.107v-.747c0-3.103.079-4.281.55-5.106.236-.432.629-.747 1.1-.943.354-.197.746-.118 1.06.118.472.51.55 1.728.55 4.95l-.039.392zm-17.834 8.485c.354.117.707.157 1.06.157.668.039 1.297-.197 1.808-.668.55-.55.628-1.296.628-2.24v-.942c0-.825-.196-1.414-.59-1.728a1.999 1.999 0 00-1.57-.315s-.275.04-.707.118c-.118 0-.236 0-.315-.078-.275-.236-.236-.904-.236-1.218v-.118c0-.55.118-1.296.983-1.493a.548.548 0 01.589.118c.157.157.236.432.236.943v.314l1.57-.314v-.157c0-.747-.078-1.572-.746-2.082a2.24 2.24 0 00-1.807-.314 2.992 2.992 0 00-1.65.903 3.139 3.139 0 00-.785 2.24c0 1.256.078 2.081.59 2.474.392.314 1.02.354 2.042.157.196-.04.393 0 .55.118.236.196.236.629.236 1.1 0 .746-.08 1.14-.275 1.375a1.073 1.073 0 01-.747.314c-.236.04-.432-.04-.628-.196-.158-.157-.236-.393-.236-1.061v-.393l-1.571.314c0 .943.117 1.65.707 2.2.275.197.55.354.864.472zM41.129 27.38l.04-.039 6.049-2.121v-2.28l-8.014 2.868v19.956h8.014V43.8h-6.09v-7.62h.04l5.264-1.14v-2.2l-5.303 1.14v-6.6zm-30.248 6.246V18.423l.118-.039 3.143 7.07 1.65-.392 3.22-6.835.119.04v12.412l2.003-.707V12.335h-1.69l-4.28 10.095-.354.079-4.242-10.175h-1.65v21.96l1.964-.668zm19.052-6.757v-1.807l-4.792 1.61V21.41l4.085-.943V18.58l-4.085.825v-5.303h4.792v-1.768h-6.835v16.931l6.835-2.396zm5.775-2.043c1.021-.51 2.2-1.61 2.2-4.557v-4.007c-.118-1.532-.354-2.317-.943-2.946a3.09 3.09 0 00-2.396-.982h-3.221v14.024l4.36-1.532zm-2.553-10.724h.039c1.414-.04 2.121.118 2.514.55.51.51.51 1.453.51 3.024v.904c0 3.457-.117 4.4-2.985 5.382l-.078.039v-9.9zm9.938 8.092l.628-3.064 1.847-.471.51 2.475 1.297-.472-1.807-8.327H43.8l-2.318 10.449 1.611-.59zm1.532-7.463h.157v.039l.55 2.593-1.296.353.589-2.985zM19.877 41.718c0 1.453-.55 2.396-1.492 2.514-1.022.157-1.572-.275-1.572-4.871 0-1.297.157-3.025.51-3.654a1.933 1.933 0 011.1-.903c.315-.157.708-.118 1.022.118.354.275.393 1.846.393 2.278l1.257-.275.471-.118v-1.06c0-1.218-.353-2.082-.982-2.475a1.72 1.72 0 00-.982-.314c-.432 0-.825.078-1.218.235-2.71.943-3.181 2.946-3.26 4.99v3.062c0 3.536.51 5.107 3.3 4.675 1.65-.275 3.103-.825 3.103-5.068v-.471l-1.69.354c.04.274.04.942.04.982zm20.859-29.383h-1.532v11.234l1.532-.55V12.335zm-3.732 15.083c-.51-.353-1.335-.353-2.435.04l-1.414.51-1.807.629v17.166h1.807V37.79l.196-.04c1.925-.392 4.518-.903 4.557-4.124v-3.26c0-1.533-.275-2.515-.904-2.947zm-.746 5.971c0 .904-.668 1.69-1.729 1.925l-1.374.314v-5.735l1.335-.471a1.382 1.382 0 011.297.039c.353.236.51.707.51 1.336-.039-.04-.039 2.396-.039 2.592zM8.878 52.051v-3.22h1.14a.89.89 0 01.942.863.89.89 0 01-.864.943H9.31v1.375h-.432v.04zm.432-1.767h.746c.275 0 .511-.275.511-.55a.52.52 0 00-.51-.511H9.31v1.06zm2.317.156c-.039-.432.118-.864.433-1.218.55-.55 1.414-.59 2.003-.04l.04.04c.274.314.431.746.431 1.218.04.432-.117.864-.432 1.218-.55.55-1.453.589-2.003.039l-.04-.04c-.314-.353-.47-.785-.431-1.217zm.393 0c-.039.354.079.668.275.943.197.196.472.314.747.314s.55-.118.746-.314a1.594 1.594 0 000-1.847 1.073 1.073 0 00-.746-.314c-.275 0-.55.118-.747.314-.196.236-.275.55-.275.904zm2.986-1.611h.432l.668 2.632.668-2.279h.353l.668 2.279.668-2.632h.432l-.864 3.22h-.432l-.668-2.199-.668 2.2h-.432l-.825-3.221zm4.557 3.221v-3.221h1.846v.392h-1.453v.943h1.178v.393h-1.178v1.14h1.493v.392l-1.886-.04zm2.671 0v-3.222h1.06c.472-.078.865.275.943.707v.118c.04.393-.275.747-.667.825l.942 1.532h-.471l-.943-1.532h-.471v1.532h-.393v.04zm.393-1.925h.668c.353 0 .51-.157.51-.472 0-.314-.157-.471-.51-.471h-.668v.943zm2.514 1.925v-3.221h1.846v.392h-1.453v.943h1.178v.393h-1.178v1.14h1.493v.392l-1.886-.04zm2.632 0v-3.221h.903c.393 0 .786.157 1.061.432.314.314.432.746.432 1.178a1.48 1.48 0 01-.432 1.179 1.518 1.518 0 01-1.06.432h-.904zm.432-.393h.393c.59 0 1.1-.314 1.1-1.218 0-.903-.51-1.218-1.1-1.218h-.393v2.436zm4.242.393v-3.22h1.1c.432-.08.825.235.904.667v.157c0 .275-.118.511-.354.629.314.118.55.471.51.786.04.51-.353.942-.824.942h-1.336v.04zm.393-1.924h.668c.314 0 .51-.157.51-.472 0-.235-.196-.471-.431-.471h-.747v.943zm0 1.532h.668c.432 0 .628-.197.628-.55 0-.393-.196-.55-.628-.55h-.668v1.1zm2.082-2.829h.433l.707 1.414.707-1.414h.432l-.943 1.846v1.375h-.393v-1.375l-.943-1.846zm3.968.392v-.392h2.278v.392h-.943v2.829h-.393v-2.83h-.942zm3.26 2.829v-3.221h.472l1.453 2.514v-2.514h.393v3.22h-.471l-1.454-2.513v2.514h-.393zm3.457-1.06c.118.431.315.706.707.706.157 0 .315-.039.432-.196a.663.663 0 00.118-.393c0-.275-.235-.432-.589-.628a2.503 2.503 0 01-.55-.315.775.775 0 01-.236-.55.8.8 0 01.236-.589.776.776 0 01.55-.236.819.819 0 01.825.511l-.354.197a.56.56 0 00-.51-.354.422.422 0 00-.393.393.41.41 0 00.196.353c.079.04.118.079.197.118l.235.118c.158.079.275.157.433.236a.772.772 0 01.353.668c0 .235-.078.47-.236.667-.196.197-.432.315-.707.315-.235 0-.471-.079-.667-.236a1.02 1.02 0 01-.354-.629l.314-.157z" fill="#fff"/></svg>